<svg width="356" height="174.7653842748927" viewBox="0 0 356 174.7653842748927" class="css-1j8o68f">
    <defs id="SvgjsDefs1267"></defs>
    <g id="SvgjsG1268" featurekey="LwVBM5-0"
       transform="matrix(1.7607782717339016,0,0,1.7607782717339016,0,-0.0006729430126165019)" fill="#364f6b">
        <path xmlns="http://www.w3.org/2000/svg"
              d="M16.294,38.99c1.288,1.769,3.859-0.104,2.571-1.872c-2.958-4.065-6.067-8.334-8.826-12.123  c-1.103-1.515-3.674,0.357-2.571,1.872C7.468,26.867,13.335,34.925,16.294,38.99z"></path>
        <path xmlns="http://www.w3.org/2000/svg"
              d="M18.465,35.216c1.404,1.929,3.976,0.057,2.572-1.872c-2.341-3.215-4.213-5.787-6.554-9.001  c-1.404-1.929-3.976-0.056-2.571,1.873C11.912,26.215,16.125,32.001,18.465,35.216z"></path>
        <path xmlns="http://www.w3.org/2000/svg"
              d="M12.037,39.897c1.404,1.929,3.976,0.056,2.571-1.873c-2.341-3.215-4.213-5.786-6.553-9  c-1.404-1.929-3.976-0.057-2.572,1.872C5.483,30.896,9.696,36.683,12.037,39.897z"></path>
        <path xmlns="http://www.w3.org/2000/svg"
              d="M54.11,0.407c-11.571,8.427-22.5,16.385-34.072,24.81c-0.239,0.174-0.428,0.354-0.593,0.537  c-0.49-0.673-0.98-1.346-1.47-2.019c-0.828-1.136-2.757,0.268-1.929,1.404c0,0,3.31,4.547,4.965,6.82  c0.828,1.137,2.757-0.268,1.929-1.404c-0.575-0.789-1.149-1.578-1.724-2.366c0.225-0.102,0.454-0.226,0.693-0.4  c0,0,22.501-16.383,34.072-24.809C57.912,1.574,56.039-0.997,54.11,0.407z"></path>
        <path xmlns="http://www.w3.org/2000/svg"
              d="M38.96,57.134c0.293-1.555,0.421-4.248-0.635-6.316l-0.18-0.216l-0.204-0.172c-2.521-2.582-9.735-4.456-16.84-4.456  c-3.53,0-7.102,0.457-10.102,1.251c0-2.135,0-4.345,0-6.818c0-0.187,0.075-0.327-0.126-0.427c-0.033-0.07,0.033-0.14-0.018-0.209  c-1.778-2.441-3.503-4.883-5.281-7.325c-0.889-1.221-2.791,0.111-1.902,1.333c0,0,3.654,5.251,5.432,7.251c0,0-0.105,0-0.105,0  c0,1,0,4.22,0,6.971c-2,0.664-3.15,1.462-4.139,2.366L4.67,50.586c-1.185,1.581-1.067,4.587-0.757,6.441  C1.667,58.414,0,60.943,0,63.469v28.629c0,3.922,3.979,5.106,5.24,5.496c3.619,1.117,8.917,1.661,16.048,1.661  c8.29,0,12.766-0.958,15.151-1.473c0.26-0.056,0.798-0.106,1.011-0.15c3.188-0.649,5.55-2.821,5.55-5.534V63.469  C43,60.938,40.935,58.521,38.96,57.134z M39,92.098c0,1.733-1.943,2.289-2.577,2.417c-0.225,0.046-0.407,0.101-0.681,0.158  c-2.271,0.49-6.464,1.4-14.415,1.4c-6.808,0-11.444-0.496-14.755-1.52C4.063,93.778,4,92.916,4,92.098V63.469  c0-1.441,0.841-3.362,2.695-4.085l1.146-0.497l-0.372-1.339c-0.451-1.979-0.602-4.292-0.283-4.96C7.645,52.202,8,51.818,9,51.453  c0,0.608,0,1.176,0,1.678c0,0.514,0.391,0.82,0.842,0.929c1.331,0.94,5.747,1.919,11.708,1.919c7.187,0,12.131-1.421,12.131-2.486  c0-1.063-5.148-2.483-12.334-2.483c-4.46,0-8.347,0.547-10.347,1.217c0-0.565,0-1.128,0-1.687c3-0.814,6.243-1.384,10.084-1.384  c6.521,0,12.399,1.696,14.262,3.328c0.264,0.651,0.38,1.473,0.349,2.274c-0.281,0.602-0.739,1.165-1.329,1.595  c-1.571,1.144-4.027,1.38-5.882,1.627c-3.16,0.421-6.399,0.507-9.582,0.388c-1.539-0.058-1.53,2.328,0.003,2.386  c5.087,0.191,11.344,0.291,16.062-2.021l-0.003,0.014l1.079,0.588C37.713,60.146,39,62.04,39,63.469V92.098z"></path>
        <path xmlns="http://www.w3.org/2000/svg"
              d="M32.957,73.808c-1.723,0.199-6.727,0.729-11.101,0.795c-4.375,0.065-9.137-0.375-11.04-0.795  C8.913,73.387,7,75.587,7,77.783v10.339c0,2.196,1.355,3.132,3.8,3.976c2.445,0.844,5.876,1.59,11.112,1.59  c5.235,0,9.216-1.141,11.088-1.59c1.874-0.448,4-1.779,4-3.976V77.783C37,75.587,34.681,73.608,32.957,73.808z"></path>
    </g>
    <g id="SvgjsG1269" featurekey="textGroupContainer" transform="matrix(1,0,0,1,355,36)" fill="#364f6b">
        <rect xmlns="http://www.w3.org/2000/svg" y="0" height="1" width="1" opacity="0"></rect>
        <rect xmlns="http://www.w3.org/2000/svg" y="0" x="-235" width="3" height="104"></rect>
    </g>
    <g id="SvgjsG1270" featurekey="YhTCwJ-0"
       transform="matrix(2.1781746968495552,0,0,2.1781746968495552,134.95055677463566,51.37051138464039)"
       fill="#364f6b">
        <path d="M2.96 4.880000000000001 l0 7.12 l0.04 0 q1.36 -1.58 3.36 -1.6 q2.22 0 3.56 1.39 t1.36 3.53 q0 2.08 -1.34 3.48 t-3.34 1.44 q-1.2 0 -2.17 -0.52 t-1.43 -1.38 l-0.04 0 l0 1.66 l-1.56 0 l0 -15.12 l1.56 0 z M2.96 15.32 q0 1.54 0.95 2.51 t2.37 0.97 q1.46 0 2.38 -0.97 t0.94 -2.51 q0 -1.52 -0.93 -2.5 t-2.41 -0.98 q-1.44 0 -2.36 0.97 t-0.94 2.51 z M17.3 10.4 q2.04 0 2.97 0.96 t0.95 2.9 l0 4.2 q0 0.6 0.14 1.54 l-1.5 0 q-0.1 -0.18 -0.1 -1.4 l-0.04 0 q-1.06 1.6 -3.08 1.64 q-1.54 0 -2.51 -0.77 t-0.97 -2.01 q0 -1.7 1.4 -2.49 t4.38 -0.79 l0.72 0 l0 -0.26 q0 -2.04 -2.32 -2.08 q-1.68 0 -2.78 1.02 l-0.98 -1.02 q1.44 -1.4 3.72 -1.44 z M14.84 17.3 q0 1.58 2.06 1.62 q1.22 0 1.99 -0.78 t0.77 -2.28 l0 -0.36 l-1.72 0 q-1.38 0 -2.23 0.44 t-0.87 1.36 z M26.44 7.98 l0 2.66 l2.76 0 l0 1.32 l-2.76 0 l0 5 q0 1.12 0.36 1.48 t1.04 0.36 q0.78 0 1.38 -0.32 l0.06 1.42 q-0.8 0.34 -1.82 0.34 q-1.44 0 -2.01 -0.71 t-0.57 -2.33 l0 -5.24 l-2.04 0 l0 -1.32 l2.04 0 l0 -2.66 l1.56 0 z M43.760000000000005 5.48 q3.14 0 5 1.86 l-1.26 1.32 q-0.74 -0.78 -1.75 -1.2 t-2.11 -0.42 q-2.44 0 -4.05 1.68 t-1.65 4.2 q0.02 2.62 1.66 4.23 t4.2 1.65 q1.84 0 3.52 -0.82 l0 -4.34 l-3.26 0 l0 -1.56 l4.94 0 l0 6.96 q-2.44 1.32 -5.3 1.32 q-3.34 0 -5.43 -2.09 t-2.13 -5.35 q0.02 -3.26 2.16 -5.32 t5.46 -2.12 z M56.7 10.4 q2.18 0 3.56 1.35 t1.44 3.57 q0 2.14 -1.4 3.51 t-3.6 1.41 q-2.2 0 -3.58 -1.39 t-1.42 -3.53 q0 -2.16 1.4 -3.53 t3.6 -1.39 z M53.38 15.32 q0 1.54 0.93 2.49 t2.39 0.99 q1.46 0 2.38 -0.97 t0.94 -2.51 q0 -1.52 -0.93 -2.5 t-2.41 -0.98 q-1.44 0 -2.36 0.97 t-0.94 2.51 z M66.98 10.4 q2.24 0.02 3.18 1.7 l-1.3 0.86 q-0.68 -1.12 -1.98 -1.12 q-0.78 0 -1.31 0.36 t-0.53 0.94 q0 0.94 2.34 1.36 q1.68 0.3 2.38 0.98 t0.7 1.82 q0 1.38 -1.02 2.16 t-2.72 0.78 q-1.32 0 -2.17 -0.42 t-1.47 -1.32 l1.24 -0.96 q0.58 0.7 1.14 0.98 t1.26 0.28 q0.9 0 1.48 -0.39 t0.58 -1.05 q0 -0.68 -0.61 -1.02 t-2.03 -0.62 q-1.4 -0.3 -2.03 -0.9 t-0.63 -1.66 q0 -1.18 0.97 -1.96 t2.53 -0.8 z M74.20000000000002 4.880000000000001 l0 7.06 l0.04 0 q0.42 -0.7 1.24 -1.12 t1.78 -0.42 q1.76 0 2.65 1.02 t0.89 2.72 l0 5.86 l-1.56 0 l0 -5.68 q0 -1.08 -0.5 -1.77 t-1.64 -0.71 q-1.44 0 -2.17 0.95 t-0.73 2.57 l0 4.64 l-1.56 0 l0 -15.12 l1.56 0 z M88.22000000000001 10.4 q2.18 0 3.56 1.35 t1.44 3.57 q0 2.14 -1.4 3.51 t-3.6 1.41 q-2.2 0 -3.58 -1.39 t-1.42 -3.53 q0 -2.16 1.4 -3.53 t3.6 -1.39 z M84.90000000000002 15.32 q0 1.54 0.93 2.49 t2.39 0.99 q1.46 0 2.38 -0.97 t0.94 -2.51 q0 -1.52 -0.93 -2.5 t-2.41 -0.98 q-1.44 0 -2.36 0.97 t-0.94 2.51 z"></path>
    </g>
    <g id="SvgjsG1271" featurekey="duLK5n-0"
       transform="matrix(0.5178328510289287,0,0,0.5178328510289287,137.2232507234566,103.2451291436342)" fill="#364f6b">
        <path d="M1.5 20 l0 -14.24 l1.8 0 l0 12.5 l7.8 0 l0 1.74 l-9.6 0 z M26.78 20 l0 -14.24 l1.8 0 l0 14.24 l-1.8 0 z M45.24 20 l0 -14.24 l4.96 0 c0.9 0 1.76 0.36 2.4 1 s1 1.5 1 2.4 c0 1.88 -1.54 3.38 -3.4 3.38 l-3.18 0 l0 7.46 l-1.78 0 z M50.2 10.8 c0.88 0 1.6 -0.74 1.6 -1.64 s-0.72 -1.66 -1.6 -1.66 l-3.18 0 l0 3.3 l3.18 0 z M73.54 20.14 c-0.48 0 -0.96 -0.06 -1.44 -0.16 c-1.48 -0.3 -2.94 -1.04 -4.24 -2.16 l1.18 -1.34 c1.06 0.92 2.24 1.54 3.42 1.78 c1 0.22 1.98 0.14 2.76 -0.22 c0.52 -0.24 1.42 -0.84 1.42 -2.06 c0 -1.5 -1.6 -2.04 -3.16 -2.34 c-0.14 -0.02 -2.38 -0.48 -3.28 -1 c-1.2 -0.72 -1.84 -1.8 -1.84 -3.12 c0 -0.74 0.24 -1.44 0.66 -2.06 c0.42 -0.56 1 -1.02 1.68 -1.34 c1 -0.48 2.18 -0.62 3.38 -0.42 c1.3 0.22 2.62 0.84 3.78 1.8 l-1.14 1.38 c-2.06 -1.7 -4.06 -1.74 -5.26 -1.18 c-0.82 0.38 -1.3 1.08 -1.3 1.8 c0 1.36 1.16 1.88 3 2.28 c0.76 0.18 2.34 0.44 3.28 0.98 c1.3 0.72 1.98 1.84 1.98 3.22 c0 0.82 -0.22 1.58 -0.68 2.24 c-0.42 0.6 -1.06 1.06 -1.78 1.42 c-0.76 0.38 -1.54 0.5 -2.42 0.5 z M102.68 5.76 l1.8 0 l0 9.02 c0 3 -2.44 5.42 -5.44 5.42 c-2.98 0 -5.42 -2.42 -5.42 -5.42 l0 -9.02 l1.78 0 l0 9.02 c0 2.02 1.64 3.68 3.64 3.68 c2.02 0 3.64 -1.66 3.64 -3.68 l0 -9.02 z M133.26000000000002 20 l-1.78 0 l0 -11.36 l-4.54 6.2 l-4.52 -6.2 l0 11.36 l-1.78 0 l0 -14.24 l1.88 0 l4.42 6.08 l4.42 -6.08 l1.9 0 l0 14.24 z M166.86000000000004 20 l0 -14.24 l4.6 0 c4.04 0 7.32 3.2 7.32 7.12 s-3.28 7.12 -7.32 7.12 l-4.6 0 z M171.46000000000004 18.26 c3.06 0 5.54 -2.44 5.54 -5.38 s-2.48 -5.38 -5.54 -5.38 l-2.82 0 l0 10.76 l2.82 0 z M200.74 5.32 c4.1 0 7.46 3.34 7.46 7.46 c0 4.1 -3.36 7.42 -7.46 7.42 s-7.44 -3.32 -7.44 -7.42 c0 -4.12 3.34 -7.46 7.44 -7.46 z M200.74 18.44 c3.12 0 5.64 -2.56 5.64 -5.66 c0 -3.12 -2.52 -5.7 -5.64 -5.7 s-5.64 2.58 -5.64 5.7 c0 3.1 2.52 5.66 5.64 5.66 z M223.34 20 l0 -14.24 l1.8 0 l0 12.5 l7.8 0 l0 1.74 l-9.6 0 z M247.92000000000002 20 l0 -14.24 l1.8 0 l0 12.5 l7.8 0 l0 1.74 l-9.6 0 z M282.62 20 l-1.58 -4.14 l-5.82 0 l-1.58 4.14 l-1.92 0 l5.48 -14.24 l1.86 0 l5.5 14.24 l-1.94 0 z M280.34 14.1 l-2.2 -5.76 l-2.22 5.76 l4.42 0 z M304.98 12.42 l5.5 7.58 l-2.06 0 l-5.44 -7.48 l-2.04 0 l0 7.48 l-1.72 0 l0 -14.24 l4.94 0 c0.9 0 1.74 0.36 2.38 1 s1 1.48 1 2.38 c0 1.58 -1.1 2.9 -2.56 3.28 z M300.94 7.48 l0 3.32 l3.22 0 c0.92 0 1.66 -0.74 1.66 -1.66 s-0.74 -1.66 -1.66 -1.66 l-3.22 0 z"></path>
    </g>
</svg>
